<svg id="Layer_1" data-name="Layer 1" xmlns="http://www.w3.org/2000/svg" viewBox="0 0 100.01 210.86"><defs><style>.cls-1{fill:#7c3795;}</style></defs><path class="cls-1" d="M431.44,285.05h29.9q0,20.11-10.72,32.41-13.89,16-35.58,16-19.05,0-31.88-13.23t-13-32.68q0-15.35,8.07-24.6T406,246.56q19.44-7.16,24.61-11.51t5.29-13.5q0-9.12-5.49-14.48t-14.62-5.36q-9.12,0-14.55,5.29t-5.43,14.42a57,57,0,0,0,1.59,11.38H366.62q-.27-3.44-.46-6.09c-.14-1.76-.2-3.35-.2-4.76q0-20.89,14.15-34.79t35.46-13.89q21.56,0,36,14T466,222.35q0,21.56-14.42,34.79-9.14,8.33-34.4,16.14Q400,278.58,400,290a14.65,14.65,0,0,0,1.25,6,16,16,0,0,0,3.38,5,15,15,0,0,0,5,3.31,15.29,15.29,0,0,0,6,1.19Q430.12,305.42,431.44,285.05Zm-33.73,80.56a17.52,17.52,0,0,1,5.42-12.83,18.38,18.38,0,1,1,25.93,26.06,17.47,17.47,0,0,1-12.83,5.29,17.78,17.78,0,0,1-13.1-5.29A18,18,0,0,1,397.71,365.61Z" transform="translate(-365.96 -173.27)"/></svg>